<svg width="112" height="114" viewBox="12 8 104 106" fill="none" xmlns="http://www.w3.org/2000/svg">
<mask id="path-1-outside-1_414_92" maskUnits="userSpaceOnUse" x="18" y="37.3475" width="55" height="64" fill="black">
<rect fill="white" x="18" y="37.3475" width="55" height="64"/>
<path d="M49.8262 38.3475C55.6832 38.3475 60.6929 40.4282 64.7773 44.5897C68.9388 48.6742 71.0195 53.684 71.0195 59.5409C71.0195 65.3207 69.0151 70.3295 64.9307 74.4139C60.8463 78.4983 55.9145 80.6561 50.1348 80.7333H34.4131V92.2938C34.4129 96.5321 30.9453 99.9996 26.707 99.9999C22.4686 99.9999 19.0002 96.5323 19 92.2938V46.0546C19 41.816 22.4684 38.3475 26.707 38.3475H49.8262ZM34.4131 53.7606V65.3202H50.0576C53.063 65.243 55.6063 62.6233 55.6064 59.5409C55.6064 56.3812 52.9859 53.7606 49.8262 53.7606H34.4131Z"/>
</mask>
<path d="M49.8262 38.3475C55.6832 38.3475 60.6929 40.4282 64.7773 44.5897C68.9388 48.6742 71.0195 53.684 71.0195 59.5409C71.0195 65.3207 69.0151 70.3295 64.9307 74.4139C60.8463 78.4983 55.9145 80.6561 50.1348 80.7333H34.4131V92.2938C34.4129 96.5321 30.9453 99.9996 26.707 99.9999C22.4686 99.9999 19.0002 96.5323 19 92.2938V46.0546C19 41.816 22.4684 38.3475 26.707 38.3475H49.8262ZM34.4131 53.7606V65.3202H50.0576C53.063 65.243 55.6063 62.6233 55.6064 59.5409C55.6064 56.3812 52.9859 53.7606 49.8262 53.7606H34.4131Z" fill="#8B5CF6"/>
<path d="M64.7773 44.5897L64.0637 45.2902L64.0702 45.2969L64.0769 45.3034L64.7773 44.5897ZM71.0195 59.5409L72.0195 59.5409V59.5409H71.0195ZM64.9307 74.4139L65.6378 75.1211L65.6378 75.121L64.9307 74.4139ZM50.1348 80.7333V81.7334L50.1481 81.7332L50.1348 80.7333ZM34.4131 80.7333V79.7333H33.4131V80.7333H34.4131ZM34.4131 92.2938L35.4131 92.2939V92.2938H34.4131ZM26.707 99.9999V101H26.7071L26.707 99.9999ZM19 92.2938H18V92.2939L19 92.2938ZM34.4131 53.7606V52.7606H33.4131V53.7606H34.4131ZM34.4131 65.3202H33.4131V66.3202H34.4131V65.3202ZM50.0576 65.3202V66.3202H50.0705L50.0833 66.3199L50.0576 65.3202ZM55.6064 59.5409L56.6064 59.541V59.5409H55.6064ZM49.8262 38.3475V39.3475C55.4181 39.3475 60.1696 41.3226 64.0637 45.2902L64.7773 44.5897L65.491 43.8893C61.2162 39.5337 55.9482 37.3475 49.8262 37.3475V38.3475ZM64.7773 44.5897L64.0769 45.3034C68.0443 49.1975 70.0195 53.9491 70.0195 59.5409H71.0195H72.0195C72.0195 53.4189 69.8333 48.1509 65.4778 43.876L64.7773 44.5897ZM71.0195 59.5409L70.0195 59.5409C70.0195 65.0644 68.1142 69.8162 64.2236 73.7068L64.9307 74.4139L65.6378 75.121C69.9159 70.8429 72.0195 65.577 72.0195 59.5409L71.0195 59.5409ZM64.9307 74.4139L64.2236 73.7068C60.3168 77.6136 55.6314 79.6598 50.1214 79.7334L50.1348 80.7333L50.1481 81.7332C56.1977 81.6525 61.3758 79.383 65.6378 75.1211L64.9307 74.4139ZM50.1348 80.7333V79.7333H34.4131V80.7333V81.7333H50.1348V80.7333ZM34.4131 80.7333H33.4131V92.2938H34.4131H35.4131V80.7333H34.4131ZM34.4131 92.2938L33.4131 92.2938C33.4129 95.9798 30.393 98.9997 26.707 98.9999L26.707 99.9999L26.7071 101C31.4976 101 35.4128 97.0844 35.4131 92.2939L34.4131 92.2938ZM26.707 99.9999V98.9999C23.0207 98.9999 20.0002 95.9798 20 92.2938L19 92.2938L18 92.2939C18.0002 97.0847 21.9164 101 26.707 101V99.9999ZM19 92.2938H20V46.0546H19H18V92.2938H19ZM19 46.0546H20C20 42.3682 23.0207 39.3475 26.707 39.3475V38.3475V37.3475C21.9161 37.3475 18 41.2637 18 46.0546H19ZM26.707 38.3475V39.3475H49.8262V38.3475V37.3475H26.707V38.3475ZM34.4131 53.7606H33.4131V65.3202H34.4131H35.4131V53.7606H34.4131ZM34.4131 65.3202V66.3202H50.0576V65.3202V64.3202H34.4131V65.3202ZM50.0576 65.3202L50.0833 66.3199C53.6415 66.2285 56.6062 63.1548 56.6064 59.541L55.6064 59.5409L54.6064 59.5408C54.6063 62.0918 52.4845 64.2575 50.0319 64.3205L50.0576 65.3202ZM55.6064 59.5409H56.6064C56.6064 55.8289 53.5381 52.7606 49.8262 52.7606V53.7606V54.7606C52.4336 54.7606 54.6064 56.9335 54.6064 59.5409H55.6064ZM49.8262 53.7606V52.7606H34.4131V53.7606V54.7606H49.8262V53.7606Z" fill="#8B5CF6" mask="url(#path-1-outside-1_414_92)"/>
<mask id="path-3-outside-2_414_92" maskUnits="userSpaceOnUse" x="18" y="47.6523" width="55" height="64" fill="black">
<rect fill="white" x="18" y="47.6523" width="55" height="64"/>
<path d="M49.8262 110.652C55.6832 110.652 60.6929 108.572 64.7773 104.41C68.9388 100.326 71.0195 95.3159 71.0195 89.459C71.0195 83.6792 69.0151 78.6703 64.9307 74.5859C60.8463 70.5016 55.9145 68.3437 50.1348 68.2666H34.4131V56.7061C34.4129 52.4678 30.9453 49.0003 26.707 49C22.4686 49 19.0002 52.4676 19 56.7061V102.945C19 107.184 22.4684 110.652 26.707 110.652H49.8262ZM34.4131 95.2393V83.6797H50.0576C53.063 83.7569 55.6063 86.3766 55.6064 89.459C55.6064 92.6187 52.9859 95.2393 49.8262 95.2393H34.4131Z"/>
</mask>
<path d="M49.8262 110.652C55.6832 110.652 60.6929 108.572 64.7773 104.41C68.9388 100.326 71.0195 95.3159 71.0195 89.459C71.0195 83.6792 69.0151 78.6703 64.9307 74.5859C60.8463 70.5016 55.9145 68.3437 50.1348 68.2666H34.4131V56.7061C34.4129 52.4678 30.9453 49.0003 26.707 49C22.4686 49 19.0002 52.4676 19 56.7061V102.945C19 107.184 22.4684 110.652 26.707 110.652H49.8262ZM34.4131 95.2393V83.6797H50.0576C53.063 83.7569 55.6063 86.3766 55.6064 89.459C55.6064 92.6187 52.9859 95.2393 49.8262 95.2393H34.4131Z" fill="#8B5CF6"/>
<path d="M64.7773 104.41L64.0637 103.71L64.0702 103.703L64.0769 103.696L64.7773 104.41ZM71.0195 89.459L72.0195 89.459V89.459H71.0195ZM64.9307 74.5859L65.6378 73.8788L65.6378 73.8788L64.9307 74.5859ZM50.1348 68.2666V67.2665L50.1481 67.2667L50.1348 68.2666ZM34.4131 68.2666V69.2666H33.4131V68.2666H34.4131ZM34.4131 56.7061L35.4131 56.706V56.7061H34.4131ZM26.707 49V48H26.7071L26.707 49ZM19 56.7061H18V56.706L19 56.7061ZM34.4131 95.2393V96.2393H33.4131V95.2393H34.4131ZM34.4131 83.6797H33.4131V82.6797H34.4131V83.6797ZM50.0576 83.6797V82.6797H50.0705L50.0833 82.68L50.0576 83.6797ZM55.6064 89.459L56.6064 89.4589V89.459H55.6064ZM49.8262 110.652V109.652C55.4181 109.652 60.1696 107.677 64.0637 103.71L64.7773 104.41L65.491 105.111C61.2162 109.466 55.9482 111.652 49.8262 111.652V110.652ZM64.7773 104.41L64.0769 103.696C68.0443 99.8024 70.0195 95.0508 70.0195 89.459H71.0195H72.0195C72.0195 95.581 69.8333 100.849 65.4778 105.124L64.7773 104.41ZM71.0195 89.459L70.0195 89.459C70.0195 83.9355 68.1142 79.1837 64.2236 75.293L64.9307 74.5859L65.6378 73.8788C69.9159 78.157 72.0195 83.4229 72.0195 89.459L71.0195 89.459ZM64.9307 74.5859L64.2236 75.293C60.3168 71.3863 55.6314 69.34 50.1214 69.2665L50.1348 68.2666L50.1481 67.2667C56.1977 67.3474 61.3758 69.6168 65.6378 73.8788L64.9307 74.5859ZM50.1348 68.2666V69.2666H34.4131V68.2666V67.2666H50.1348V68.2666ZM34.4131 68.2666H33.4131V56.7061H34.4131H35.4131V68.2666H34.4131ZM34.4131 56.7061L33.4131 56.7061C33.4129 53.0201 30.393 50.0002 26.707 50L26.707 49L26.7071 48C31.4976 48.0003 35.4128 51.9155 35.4131 56.706L34.4131 56.7061ZM26.707 49V50C23.0207 50 20.0002 53.02 20 56.7061L19 56.7061L18 56.706C18.0002 51.9152 21.9164 48 26.707 48V49ZM19 56.7061H20V102.945H19H18V56.7061H19ZM19 102.945H20C20 106.632 23.0207 109.652 26.707 109.652V110.652V111.652C21.9161 111.652 18 107.736 18 102.945H19ZM26.707 110.652V109.652H49.8262V110.652V111.652H26.707V110.652ZM34.4131 95.2393H33.4131V83.6797H34.4131H35.4131V95.2393H34.4131ZM34.4131 83.6797V82.6797H50.0576V83.6797V84.6797H34.4131V83.6797ZM50.0576 83.6797L50.0833 82.68C53.6415 82.7714 56.6062 85.8451 56.6064 89.4589L55.6064 89.459L54.6064 89.459C54.6063 86.9081 52.4845 84.7423 50.0319 84.6794L50.0576 83.6797ZM55.6064 89.459H56.6064C56.6064 93.171 53.5381 96.2393 49.8262 96.2393V95.2393V94.2393C52.4336 94.2393 54.6064 92.0664 54.6064 89.459H55.6064ZM49.8262 95.2393V96.2393H34.4131V95.2393V94.2393H49.8262V95.2393Z" fill="#8B5CF6" mask="url(#path-3-outside-2_414_92)"/>
<path d="M80.1693 80.5002C86.1542 73.2873 88.6949 64.8267 87.9346 55.3611C87.1641 45.7693 83.1825 37.8326 76 31.6773" stroke="#8B5CF6" stroke-width="16"/>
<path d="M99.4602 93.999C109.04 82.5129 113.111 69.043 111.901 53.9753C110.674 38.7066 104.309 26.0749 92.8213 16.2811" stroke="#8B5CF6" stroke-width="16"/>
</svg>
